<?xml version="1.0" encoding="UTF-8"?>
<svg xmlns="http://www.w3.org/2000/svg" xmlns:xlink="http://www.w3.org/1999/xlink" viewBox="0 0 48 48" width="48px" height="48px">
<g id="surface316094448">
<path style=" stroke:none;fill-rule:nonzero;fill:rgb(0%,0%,0%);fill-opacity:1;" d="M 41.96875 21 L 27 21 C 25.894531 21 25 21.894531 25 23 L 25 26 C 25 27.105469 25.894531 28 27 28 L 28 28 L 32 27 L 36.363281 28 C 34.613281 33.402344 29.417969 37.269531 23.378906 36.984375 C 16.738281 36.675781 11.273438 31.167969 11.011719 24.523438 C 10.863281 20.828125 11.640625 16.453125 14 14 C 16.367188 11.539062 20.320312 11 24 11 C 26.75 11 29.308594 11.859375 31.410156 13.320312 C 32.21875 13.882812 33.300781 13.820312 33.996094 13.125 L 36.152344 10.980469 C 37 10.136719 36.941406 8.714844 35.980469 7.992188 C 32.613281 5.464844 28.417969 3.972656 23.878906 4 C 13.429688 4.0625 4.613281 12.429688 4.03125 22.863281 C 3.390625 34.40625 12.59375 44 24 44 C 29.769531 44 34.347656 40.921875 38 37 C 41.328125 33.425781 44 29.257812 44 24 C 44 23.613281 43.988281 23.230469 43.96875 22.851562 C 43.90625 21.804688 43.015625 21 41.96875 21 Z M 41.96875 21 "/>
<path style=" stroke:none;fill-rule:nonzero;fill:rgb(0%,0%,0%);fill-opacity:1;" d="M 24 44 C 23.445312 44 23 43.554688 23 43 C 23 42.445312 23.445312 42 24 42 C 33.925781 42 42 33.925781 42 24 C 42 23.445312 42.445312 23 43 23 C 43.554688 23 44 23.445312 44 24 C 44 35.027344 35.027344 44 24 44 Z M 24 44 "/>
<path style=" stroke:none;fill-rule:nonzero;fill:rgb(0%,0%,0%);fill-opacity:1;" d="M 36 28 L 28 28 C 27.445312 28 27 27.554688 27 27 C 27 26.445312 27.445312 26 28 26 L 36 26 C 36.554688 26 37 26.445312 37 27 C 37 27.554688 36.554688 28 36 28 Z M 36 28 "/>
<path style=" stroke:none;fill-rule:nonzero;fill:rgb(0%,0%,0%);fill-opacity:1;" d="M 10.011719 25.5625 C 9.476562 25.5625 9.035156 25.140625 9.011719 24.601562 C 8.851562 20.484375 10.332031 16.582031 13.1875 13.609375 C 16.046875 10.636719 19.886719 9 24 9 C 24.554688 9 25 9.445312 25 10 C 25 10.554688 24.554688 11 24 11 C 20.433594 11 17.105469 12.417969 14.628906 14.996094 C 12.15625 17.570312 10.867188 20.953125 11.011719 24.523438 C 11.03125 25.074219 10.605469 25.539062 10.050781 25.5625 C 10.039062 25.5625 10.023438 25.5625 10.011719 25.5625 Z M 10.011719 25.5625 "/>
</g>
</svg>
